# xmcd
#
# Track frame offsets:
#	150
#	26120
#	39478
#	58169
#	95440
#	123319
#	148278
#
# Disc length: 2579 seconds
# Revision: 0
# Processed by: cddbd v1.5.2PL0 Copyright (c) Steve Scherf et al.
# Submitted via: dBpowerAMP V12.0
#
DISCID=640a1107
DTITLE=Dżem - Najemnik
DYEAR=1989
DGENRE=Blues
TTITLE0=Najemnik I
TTITLE1=Kaczor coś Ty zrobił
TTITLE2=Harley mój
TTITLE3=Modlitwa III - Pozwól mi
TTITLE4=Wehikuł czasu - to byłby cud
TTITLE5=Tylko Ja i Ty
TTITLE6=Najemnik II
EXTD=
EXTT0=
EXTT1=
EXTT2=
EXTT3=
EXTT4=
EXTT5=
EXTT6=
PLAYORDER=
